<svg width="512" height="512" viewBox="0 0 512 512" fill="none" xmlns="http://www.w3.org/2000/svg">
<path d="M183.578 157.527C183.578 148.138 191.189 140.527 200.578 140.527C209.967 140.527 217.578 148.138 217.578 157.527V420.527C217.578 429.916 209.967 437.527 200.578 437.527C191.189 437.527 183.578 429.916 183.578 420.527V157.527Z" fill="#D4A373"/>
<path d="M298.578 147.527C298.578 138.138 306.189 130.527 315.578 130.527C324.967 130.527 332.578 138.138 332.578 147.527V430.527C332.578 439.916 324.967 447.527 315.578 447.527C306.189 447.527 298.578 439.916 298.578 430.527V147.527Z" fill="#D4A373"/>
<path d="M274.534 227.166C280.007 234.795 278.26 245.416 270.631 250.889C263.002 256.362 252.381 254.614 246.908 246.986L187.488 164.16C182.015 156.531 183.763 145.91 191.391 140.437C199.02 134.964 209.641 136.712 215.114 144.34L274.534 227.166Z" fill="#F4F4F9"/>
<path d="M485.578 267.527C485.578 375.223 398.498 462.527 291.078 462.527C183.659 462.527 96.5783 375.223 96.5783 267.527C96.5783 159.832 183.659 72.5272 291.078 72.5272C398.498 72.5272 485.578 159.832 485.578 267.527ZM129.598 267.527C129.598 356.94 201.895 429.423 291.078 429.423C380.261 429.423 452.558 356.94 452.558 267.527C452.558 178.115 380.261 105.632 291.078 105.632C201.895 105.632 129.598 178.115 129.598 267.527Z" fill="#D4A373"/>
<path d="M384.491 227.531C389.964 235.159 388.216 245.78 380.588 251.253C372.959 256.726 362.338 254.979 356.865 247.35L301.488 170.159C296.015 162.531 297.763 151.91 305.391 146.437C313.02 140.964 323.641 142.712 329.114 150.34L384.491 227.531Z" fill="#F4F4F9"/>
<path d="M301.349 150.396C306.779 142.737 317.389 140.929 325.049 146.358C332.709 151.788 334.516 162.399 329.087 170.059L274.147 247.561C268.718 255.221 258.107 257.029 250.447 251.599C242.788 246.169 240.98 235.558 246.41 227.899L301.349 150.396Z" fill="#F4F4F9"/>
<path d="M412.349 150.396C417.779 142.737 428.389 140.929 436.049 146.358C443.709 151.788 445.516 162.399 440.087 170.059L385.147 247.561C379.718 255.221 369.107 257.029 361.447 251.599C353.788 246.169 351.98 235.558 357.41 227.899L412.349 150.396Z" fill="#F4F4F9"/>
<path d="M9.05205 104.311C8.4152 97.1596 13.6963 90.846 20.8477 90.2092L483.019 49.052C490.17 48.4152 496.484 53.6963 497.121 60.8477L502.146 117.283C502.783 124.434 497.502 130.748 490.351 131.385L28.1796 172.542C21.0282 173.179 14.7145 167.898 14.0777 160.746L9.05205 104.311Z" fill="#D4A373"/>
</svg>
