<svg width="1107" height="395" viewBox="0 0 1107 395" fill="none" xmlns="http://www.w3.org/2000/svg">
<path d="M191 86C191 76.6112 198.611 69 208 69C217.389 69 225 76.6112 225 86V349C225 358.389 217.389 366 208 366C198.611 366 191 358.389 191 349V86Z" fill="#D4A373"/>
<path d="M311 72C311 62.6112 318.611 55 328 55C337.389 55 345 62.6112 345 72V355C345 364.389 337.389 372 328 372C318.611 372 311 364.389 311 355V72Z" fill="#D4A373"/>
<path d="M280.635 179.267C286.108 186.896 284.361 197.517 276.732 202.99C269.103 208.463 258.482 206.715 253.009 199.087L193.589 116.261C188.116 108.632 189.864 98.0108 197.492 92.5379C205.121 87.065 215.742 88.8126 221.215 96.4413L280.635 179.267Z" fill="#F4F4F9"/>
<path d="M390.592 179.632C396.065 187.26 394.318 197.881 386.689 203.354C379.06 208.827 368.439 207.08 362.966 199.451L307.589 122.261C302.116 114.632 303.864 104.011 311.492 98.5379C319.121 93.065 329.742 94.8126 335.215 102.441L390.592 179.632Z" fill="#F4F4F9"/>
<path d="M307.45 102.497C312.88 94.8376 323.491 93.0299 331.15 98.4595C338.81 103.889 340.617 114.5 335.188 122.16L280.248 199.662C274.819 207.322 264.208 209.13 256.548 203.7C248.889 198.27 247.081 187.659 252.511 180L307.45 102.497Z" fill="#F4F4F9"/>
<path d="M418.45 102.497C423.88 94.8376 434.491 93.0299 442.15 98.4595C449.81 103.889 451.617 114.5 446.188 122.16L391.248 199.662C385.819 207.322 375.208 209.13 367.548 203.7C359.889 198.27 358.081 187.659 363.511 180L418.45 102.497Z" fill="#F4F4F9"/>
<path d="M428.6 374.4C417 374.4 406.933 371.867 398.4 366.8C389.867 361.6 383.267 354.667 378.6 346C373.933 337.333 371.6 327.733 371.6 317.2C371.6 306.267 374 296.533 378.8 288C383.733 279.467 390.333 272.733 398.6 267.8C406.867 262.867 416.2 260.4 426.6 260.4C435.267 260.4 442.933 261.8 449.6 264.6C456.267 267.267 461.867 271.067 466.4 276C471.067 280.933 474.6 286.667 477 293.2C479.4 299.6 480.6 306.6 480.6 314.2C480.6 316.333 480.467 318.467 480.2 320.6C480.067 322.6 479.733 324.333 479.2 325.8H397.4V303.8H462.2L448 314.2C449.333 308.467 449.267 303.4 447.8 299C446.333 294.467 443.733 290.933 440 288.4C436.4 285.733 431.933 284.4 426.6 284.4C421.4 284.4 416.933 285.667 413.2 288.2C409.467 290.733 406.667 294.467 404.8 299.4C402.933 304.333 402.2 310.333 402.6 317.4C402.067 323.533 402.8 328.933 404.8 333.6C406.8 338.267 409.867 341.933 414 344.6C418.133 347.133 423.133 348.4 429 348.4C434.333 348.4 438.867 347.333 442.6 345.2C446.467 343.067 449.467 340.133 451.6 336.4L475.6 347.8C473.467 353.133 470.067 357.8 465.4 361.8C460.867 365.8 455.467 368.933 449.2 371.2C442.933 373.333 436.067 374.4 428.6 374.4Z" fill="#F4F4F9"/>
<path d="M504.266 372V262.8H532.266V284.4L530.666 279.6C533.199 273.067 537.266 268.267 542.866 265.2C548.599 262 555.266 260.4 562.866 260.4C571.132 260.4 578.332 262.133 584.466 265.6C590.732 269.067 595.599 273.933 599.066 280.2C602.532 286.333 604.266 293.533 604.266 301.8V372H574.266V308.2C574.266 303.933 573.399 300.267 571.666 297.2C570.066 294.133 567.732 291.733 564.666 290C561.732 288.267 558.266 287.4 554.266 287.4C550.399 287.4 546.932 288.267 543.866 290C540.799 291.733 538.399 294.133 536.666 297.2C535.066 300.267 534.266 303.933 534.266 308.2V372H504.266Z" fill="#F4F4F9"/>
<path d="M684.192 374.4C673.392 374.4 663.525 371.933 654.592 367C645.792 362.067 638.726 355.333 633.392 346.8C628.192 338.133 625.592 328.333 625.592 317.4C625.592 306.333 628.192 296.533 633.392 288C638.726 279.467 645.792 272.733 654.592 267.8C663.525 262.867 673.392 260.4 684.192 260.4C694.992 260.4 704.792 262.867 713.592 267.8C722.392 272.733 729.392 279.467 734.592 288C739.925 296.533 742.592 306.333 742.592 317.4C742.592 328.333 739.925 338.133 734.592 346.8C729.392 355.333 722.392 362.067 713.592 367C704.792 371.933 694.992 374.4 684.192 374.4ZM684.192 347.4C689.659 347.4 694.392 346.133 698.392 343.6C702.526 341.067 705.726 337.533 707.992 333C710.392 328.467 711.592 323.267 711.592 317.4C711.592 311.533 710.392 306.4 707.992 302C705.726 297.467 702.526 293.933 698.392 291.4C694.392 288.733 689.659 287.4 684.192 287.4C678.726 287.4 673.926 288.733 669.792 291.4C665.659 293.933 662.392 297.467 659.992 302C657.726 306.4 656.592 311.533 656.592 317.4C656.592 323.267 657.726 328.467 659.992 333C662.392 337.533 665.659 341.067 669.792 343.6C673.926 346.133 678.726 347.4 684.192 347.4Z" fill="#F4F4F9"/>
<path d="M766.266 372V262.8H794.266V289L792.266 285.2C794.666 276 798.599 269.8 804.066 266.6C809.666 263.267 816.266 261.6 823.866 261.6H830.266V287.6H820.866C813.532 287.6 807.599 289.867 803.066 294.4C798.532 298.8 796.266 305.067 796.266 313.2V372H766.266Z" fill="#F4F4F9"/>
<path d="M903.014 374.4C892.081 374.4 882.214 371.933 873.414 367C864.747 361.933 857.814 355.067 852.614 346.4C847.547 337.733 845.014 328 845.014 317.2C845.014 306.4 847.547 296.733 852.614 288.2C857.681 279.533 864.614 272.733 873.414 267.8C882.214 262.867 892.081 260.4 903.014 260.4C911.147 260.4 918.681 261.8 925.614 264.6C932.547 267.4 938.481 271.333 943.414 276.4C948.347 281.333 951.881 287.2 954.014 294L928.014 305.2C926.147 299.733 922.947 295.4 918.414 292.2C914.014 289 908.881 287.4 903.014 287.4C897.814 287.4 893.147 288.667 889.014 291.2C885.014 293.733 881.814 297.267 879.414 301.8C877.147 306.333 876.014 311.533 876.014 317.4C876.014 323.267 877.147 328.467 879.414 333C881.814 337.533 885.014 341.067 889.014 343.6C893.147 346.133 897.814 347.4 903.014 347.4C909.014 347.4 914.214 345.8 918.614 342.6C923.014 339.4 926.147 335.067 928.014 329.6L954.014 341C952.014 347.4 948.547 353.133 943.614 358.2C938.681 363.267 932.747 367.267 925.814 370.2C918.881 373 911.281 374.4 903.014 374.4Z" fill="#F4F4F9"/>
<path d="M1011.48 374.4C1003.61 374.4 996.813 373.133 991.08 370.6C985.346 368.067 980.946 364.467 977.88 359.8C974.813 355 973.28 349.333 973.28 342.8C973.28 336.667 974.68 331.267 977.48 326.6C980.28 321.8 984.546 317.8 990.28 314.6C996.146 311.4 1003.41 309.133 1012.08 307.8L1045.48 302.4V324.4L1017.48 329.4C1013.21 330.2 1009.95 331.6 1007.68 333.6C1005.41 335.467 1004.28 338.2 1004.28 341.8C1004.28 345.133 1005.55 347.733 1008.08 349.6C1010.61 351.467 1013.75 352.4 1017.48 352.4C1022.41 352.4 1026.75 351.333 1030.48 349.2C1034.21 347.067 1037.08 344.2 1039.08 340.6C1041.21 336.867 1042.28 332.8 1042.28 328.4V300C1042.28 295.867 1040.61 292.4 1037.28 289.6C1034.08 286.8 1029.68 285.4 1024.08 285.4C1018.75 285.4 1014.01 286.867 1009.88 289.8C1005.88 292.733 1002.95 296.6 1001.08 301.4L977.08 290C979.213 283.867 982.613 278.6 987.28 274.2C991.946 269.8 997.546 266.4 1004.08 264C1010.61 261.6 1017.75 260.4 1025.48 260.4C1034.68 260.4 1042.81 262.067 1049.88 265.4C1056.95 268.733 1062.41 273.4 1066.28 279.4C1070.28 285.267 1072.28 292.133 1072.28 300V372H1044.28V354.4L1051.08 353.2C1047.88 358 1044.35 362 1040.48 365.2C1036.61 368.267 1032.28 370.533 1027.48 372C1022.68 373.6 1017.35 374.4 1011.48 374.4Z" fill="#F4F4F9"/>
<path d="M467 218V108.8H497V218H467ZM467 99V69H497V99H467Z" fill="#F4F4F9"/>
<path d="M524.953 218V108.8H552.953V130.4L551.353 125.6C553.886 119.067 557.953 114.267 563.553 111.2C569.286 108 575.953 106.4 583.553 106.4C591.82 106.4 599.02 108.133 605.153 111.6C611.42 115.067 616.286 119.933 619.753 126.2C623.22 132.333 624.953 139.533 624.953 147.8V218H594.953V154.2C594.953 149.933 594.086 146.267 592.353 143.2C590.753 140.133 588.42 137.733 585.353 136C582.42 134.267 578.953 133.4 574.953 133.4C571.086 133.4 567.62 134.267 564.553 136C561.486 137.733 559.086 140.133 557.353 143.2C555.753 146.267 554.953 149.933 554.953 154.2V218H524.953Z" fill="#F4F4F9"/>
<path d="M703.28 219.2C690.08 219.2 679.813 215.667 672.48 208.6C665.28 201.4 661.68 191.4 661.68 178.6V134.8H643.28V108.8H644.28C649.88 108.8 654.146 107.4 657.08 104.6C660.146 101.8 661.68 97.6 661.68 92V84H691.68V108.8H717.28V134.8H691.68V176.6C691.68 180.333 692.346 183.467 693.68 186C695.013 188.4 697.08 190.2 699.88 191.4C702.68 192.6 706.146 193.2 710.28 193.2C711.213 193.2 712.28 193.133 713.48 193C714.68 192.867 715.946 192.733 717.28 192.6V218C715.28 218.267 713.013 218.533 710.48 218.8C707.946 219.067 705.546 219.2 703.28 219.2Z" fill="#F4F4F9"/>
<path d="M793.459 220.4C781.859 220.4 771.793 217.867 763.259 212.8C754.726 207.6 748.126 200.667 743.459 192C738.793 183.333 736.459 173.733 736.459 163.2C736.459 152.267 738.859 142.533 743.659 134C748.593 125.467 755.193 118.733 763.459 113.8C771.726 108.867 781.059 106.4 791.459 106.4C800.126 106.4 807.793 107.8 814.459 110.6C821.126 113.267 826.726 117.067 831.259 122C835.926 126.933 839.459 132.667 841.859 139.2C844.259 145.6 845.459 152.6 845.459 160.2C845.459 162.333 845.326 164.467 845.059 166.6C844.926 168.6 844.593 170.333 844.059 171.8H762.259V149.8H827.059L812.859 160.2C814.193 154.467 814.126 149.4 812.659 145C811.193 140.467 808.593 136.933 804.859 134.4C801.259 131.733 796.793 130.4 791.459 130.4C786.259 130.4 781.793 131.667 778.059 134.2C774.326 136.733 771.526 140.467 769.659 145.4C767.793 150.333 767.059 156.333 767.459 163.4C766.926 169.533 767.659 174.933 769.659 179.6C771.659 184.267 774.726 187.933 778.859 190.6C782.993 193.133 787.993 194.4 793.859 194.4C799.193 194.4 803.726 193.333 807.459 191.2C811.326 189.067 814.326 186.133 816.459 182.4L840.459 193.8C838.326 199.133 834.926 203.8 830.259 207.8C825.726 211.8 820.326 214.933 814.059 217.2C807.793 219.333 800.926 220.4 793.459 220.4Z" fill="#F4F4F9"/>
<path d="M869.125 218V108.8H897.125V135L895.125 131.2C897.525 122 901.458 115.8 906.925 112.6C912.525 109.267 919.125 107.6 926.725 107.6H933.125V133.6H923.725C916.392 133.6 910.458 135.867 905.925 140.4C901.392 144.8 899.125 151.067 899.125 159.2V218H869.125Z" fill="#F4F4F9"/>
<path d="M15.1531 56.4121C14.5163 49.2607 19.7974 42.9471 26.9488 42.3102L489.12 1.15311C496.271 0.516264 502.585 5.79736 503.222 12.9488L508.247 69.3839C508.884 76.5353 503.603 82.8489 496.452 83.4857L34.2806 124.643C27.1292 125.28 20.8156 119.999 20.1788 112.847L15.1531 56.4121Z" fill="#D4A373"/>
</svg>
